<?xml version="1.0" standalone="no"?>
<!DOCTYPE svg PUBLIC "-//W3C//DTD SVG 1.1//EN" "http://www.w3.org/Graphics/SVG/1.1/DTD/svg11.dtd" >
<svg xmlns="http://www.w3.org/2000/svg">
<metadata>
This is a custom SVG webfont generated by Font Squirrel.
Copyright   : Copyright c 2009 by Dino dos Santos DSType All rights reserved
Designer    : Dino dos Santos
Foundry URL : httpwwwtypetrustcom
</metadata>
<defs>
<font id="DobraBold" horiz-adv-x="1075" >
<font-face units-per-em="2048" ascent="1536" descent="-512" />
<missing-glyph horiz-adv-x="368" />
<glyph unicode=" "  horiz-adv-x="368" />
<glyph unicode="&#x09;" horiz-adv-x="368" />
<glyph unicode="&#xa0;" horiz-adv-x="368" />
<glyph unicode="!" horiz-adv-x="460" d="M82 0v301h297v-301h-297zM82 854v539h297v-539l-33 -410h-231z" />
<glyph unicode="&#x22;" horiz-adv-x="884" d="M82 1188v205h297v-205l-33 -221h-231zM506 1188v205h297v-205l-33 -221h-229z" />
<glyph unicode="#" horiz-adv-x="1198" d="M102 250v174h213v190h-213v174h213v220h174v-220h220v220h174v-220h213v-174h-213v-190h213v-174h-213v-219h-174v219h-220v-219h-174v219h-213zM489 424h220v190h-220v-190z" />
<glyph unicode="$" horiz-adv-x="1159" d="M82 29v250h483q152 0 152 112q0 20 -5 36.5t-20.5 31t-29 24t-43 21.5t-48 18t-61.5 19.5t-66 21.5q-168 55 -265 167t-97 280q0 178 121 283.5t321 117.5v186h125v-186q176 -4 346 -47v-250h-413q-139 0 -140 -98q0 -59 55.5 -94t196.5 -74q184 -53 283.5 -156.5 t99.5 -277.5q0 -178 -115.5 -295t-312.5 -135v-189h-125v185q-268 4 -442 49z" />
<glyph unicode="%" horiz-adv-x="1468" d="M102 1126.5q0 266.5 250 266.5q246 0 246 -266.5t-246 -266.5q-250 0 -250 266.5zM274 0l723 1393h205l-723 -1393h-205zM283 1126.5q0 -65.5 15 -96.5t54 -31t53.5 31t14.5 96.5t-14.5 95t-53.5 29.5t-54 -29.5t-15 -95zM870 266q0 266 250 266q246 0 246 -266 t-246 -266q-250 0 -250 266zM1051 266.5q0 -65.5 15 -96.5t54 -31t53.5 31t14.5 96.5t-14.5 95t-53.5 29.5t-54 -29.5t-15 -95z" />
<glyph unicode="&#x26;" horiz-adv-x="1513" d="M113 360q0 121 55 200t164 161q-66 80 -98.5 148.5t-32.5 156.5q0 178 142 282.5t351 104.5q66 0 116 -6t83 -13.5t125 -29.5v-250h-318q-72 0 -105.5 -32.5t-33.5 -80.5q0 -27 11.5 -52t50.5 -70t67.5 -76t106.5 -111l178 -184q59 100 78 223h311q-51 -260 -174 -438 l293 -293h-430l-88 86q-172 -106 -387 -106q-223 0 -344 108t-121 272zM442 393q0 -63 42 -106t134 -43q68 0 134 45l-238 237q-72 -59 -72 -133z" />
<glyph unicode="'" horiz-adv-x="460" d="M82 1188v205h297v-205l-33 -221h-231z" />
<glyph unicode="(" horiz-adv-x="686" d="M76 696q0 270 76.5 532.5t226.5 471.5h260q-238 -444 -238 -1004q0 -535 238 -1003h-260q-150 207 -226.5 473t-76.5 530z" />
<glyph unicode=")" horiz-adv-x="686" d="M45 -307q238 469 238 1003q0 559 -238 1004h262q150 -209 225.5 -471t75.5 -533q0 -264 -75.5 -530t-225.5 -473h-262z" />
<glyph unicode="*" horiz-adv-x="833" d="M117 1116l26 117l207 -53v213h133v-213l207 53l27 -117l-207 -53l147 -164l-92 -92l-147 166l-150 -166l-92 92l150 164z" />
<glyph unicode="+" horiz-adv-x="983" d="M102 410v266h256v256h267v-256h256v-266h-256v-256h-267v256h-256z" />
<glyph unicode="," horiz-adv-x="460" d="M82 -266v567h297v-199q0 -195 -111 -368h-186z" />
<glyph unicode="-" horiz-adv-x="983" d="M102 410v266h779v-266h-779z" />
<glyph unicode="." horiz-adv-x="460" d="M82 0v301h297v-301h-297z" />
<glyph unicode="/" horiz-adv-x="1069" d="M25 0l723 1393h296l-722 -1393h-297z" />
<glyph unicode="0" horiz-adv-x="1228" d="M82 696.5q0 118.5 9 209.5t41 191.5t88 165t156.5 107.5t238 43t237.5 -43t155.5 -107.5t88 -165t42 -191.5t9.5 -209.5t-9.5 -210t-42 -191.5t-88 -164.5t-155.5 -107.5t-237.5 -43t-238 43t-156.5 107.5t-88 164.5t-41 191.5t-9 210zM442 696q0 -90 5.5 -150.5 t20.5 -129t52 -103t94.5 -34.5t94 34.5t52 103t20.5 129t5 150.5t-5 150.5t-20.5 129t-52 103.5t-94 35t-94.5 -35t-52 -103.5t-20.5 -129t-5.5 -150.5z" />
<glyph unicode="1" horiz-adv-x="780" d="M4 1221l318 182h315v-1403h-346v1063l-168 -90z" />
<glyph unicode="2" horiz-adv-x="1058" d="M51 0v315q260 248 386 385.5t157 193.5t31 112q0 45 -35 76.5t-111 31.5h-407v250q184 49 420 49q221 0 357 -104.5t136 -284.5q0 -137 -95 -283.5t-405 -439.5v-4h512v-297h-946z" />
<glyph unicode="3" horiz-adv-x="1026" d="M51 29v250h391q162 0 162 129q0 84 -82 128t-399 142v108l336 310h-383v297h858v-283l-344 -268q201 -72 288 -171.5t87 -267.5q0 -190 -128 -306.5t-366 -116.5q-236 0 -420 49z" />
<glyph unicode="4" horiz-adv-x="1181" d="M61 256v301l486 846h348l-494 -850h244l96 260h250v-260h119v-297h-119v-256h-346v256h-584z" />
<glyph unicode="5" horiz-adv-x="1026" d="M51 29v250h391q162 0 162 129q0 84 -89 132t-413 148l23 705h786v-297h-489l-8 -185q299 -84 425 -206.5t126 -301.5q0 -190 -128 -306.5t-366 -116.5q-236 0 -420 49z" />
<glyph unicode="6" horiz-adv-x="1191" d="M82 696q0 139 29.5 260t97 227.5t191.5 168t296 61.5q147 0 322 -49v-250h-277q-246 0 -288 -287q88 10 151 11q266 0 386 -101.5t120 -312.5q0 -195 -124 -319.5t-370 -124.5q-291 0 -412.5 180t-121.5 536zM451 567q0 -70 3 -105.5t18 -85.5t53 -73.5t100 -23.5 q141 0 141 145q0 143 -170 143h-145z" />
<glyph unicode="7" horiz-adv-x="1013" d="M45 1096v297h907v-287l-430 -1106h-348l438 1096h-567z" />
<glyph unicode="8" horiz-adv-x="1208" d="M82 383q0 109 59.5 189.5t184.5 154.5q-82 45 -145.5 125t-63.5 190q0 164 128 267.5t359.5 103.5t358.5 -103.5t127 -267.5q0 -76 -38 -137t-75 -87.5t-96 -59.5q246 -143 245 -375q0 -184 -141 -293.5t-381 -109.5q-242 0 -382 109.5t-140 293.5zM442 387 q0 -123 162 -123t162 123t-162 182q-162 -59 -162 -182zM449 1022q0 -98 155 -160q156 61 156 160q0 106 -155.5 106t-155.5 -106z" />
<glyph unicode="9" horiz-adv-x="1191" d="M82 967q0 195 124 320.5t369 125.5q291 0 413 -180t122 -537q0 -139 -29.5 -260t-97.5 -227.5t-191.5 -167.5t-295.5 -61q-147 0 -322 49v250h277q250 0 288 286q-86 -10 -151 -10q-266 0 -386 100.5t-120 311.5zM428 967q0 -143 168 -144h145q0 70 -3 107t-18 87 t-53 73.5t-100 23.5q-139 0 -139 -147z" />
<glyph unicode=":" horiz-adv-x="460" d="M82 0v301h297v-301h-297zM82 614v301h297v-301h-297z" />
<glyph unicode=";" horiz-adv-x="460" d="M82 -266v567h297v-199q0 -195 -111 -368h-186zM82 614v301h297v-301h-297z" />
<glyph unicode="&#x3c;" horiz-adv-x="874" d="M102 442v201l670 342v-285l-348 -157l348 -160v-283z" />
<glyph unicode="=" horiz-adv-x="983" d="M102 205v235h779v-235h-779zM102 645v236h779v-236h-779z" />
<glyph unicode="&#x3e;" horiz-adv-x="874" d="M102 100v283l349 160l-349 157v285l670 -342v-201z" />
<glyph unicode="?" horiz-adv-x="1052" d="M70 1114v250q184 49 417 49q223 0 359.5 -106.5t136.5 -300.5q0 -360 -444 -471l-9 -91h-247l-17 306q205 61 275 110q82 57 82 135q0 49 -35 84t-105 35h-413zM258 0v301h297v-301h-297z" />
<glyph unicode="@" horiz-adv-x="1701" d="M92 354q0 356 225.5 586.5t571.5 230.5q303 0 512 -187t209 -480q0 -225 -124 -364.5t-349 -139.5h-176l-23 76h-2q-70 -90 -191 -90q-98 0 -152 64.5t-54 162.5q0 125 69.5 174t167.5 49h162v43q0 35 -18.5 50.5t-69.5 15.5h-268v151q174 35 297 35q147 0 217.5 -51 t70.5 -191v-301q121 0 180.5 91.5t59.5 214.5q0 221 -147.5 356t-370.5 135q-262 0 -427 -176t-165 -455q0 -248 153.5 -416.5t387.5 -168.5l-19 -179q-317 0 -522 217t-205 547zM768 229q0 -70 78 -69q35 0 63.5 22.5t28.5 71.5v47h-90q-80 0 -80 -72z" />
<glyph unicode="A" horiz-adv-x="1335" d="M31 0l387 1403h495l392 -1403h-379l-74 287h-371l-71 -287h-379zM541 553h250l-125 465h-2z" />
<glyph unicode="B" horiz-adv-x="1212" d="M102 0v1393h543q215 0 336 -97.5t121 -277.5q0 -242 -209 -299v-4q131 -33 189.5 -122t58.5 -206q0 -193 -120 -290t-337 -97h-582zM449 297h202q129 0 129 133q0 131 -129 131h-202v-264zM449 858h172q119 0 118 115q0 61 -32.5 92t-85.5 31h-172v-238z" />
<glyph unicode="C" horiz-adv-x="1140" d="M82 696.5q0 716.5 584 716.5q229 0 413 -49v-250h-352q-90 0 -150.5 -36t-87 -101.5t-37 -130t-10.5 -150.5t10.5 -150.5t37 -130t87 -101t150.5 -35.5h352v-250q-184 -49 -413 -49q-584 0 -584 716.5z" />
<glyph unicode="D" horiz-adv-x="1284" d="M102 0v1393h516q584 0 584 -696.5t-584 -696.5h-516zM449 297h124q84 0 140.5 32.5t83 95t36 125t9.5 146.5t-9.5 146.5t-36 125t-83 95.5t-140.5 33h-124v-799z" />
<glyph unicode="E" horiz-adv-x="1089" d="M102 0v1393h912v-297h-565v-238h469v-297h-469v-264h565v-297h-912z" />
<glyph unicode="F" horiz-adv-x="1069" d="M102 0v1393h912v-297h-565v-310h489v-297h-489v-489h-347z" />
<glyph unicode="G" horiz-adv-x="1222" d="M82 696.5q0 716.5 584 716.5q270 0 454 -49v-250h-393q-90 0 -150.5 -36t-87 -101.5t-37 -130t-10.5 -150.5q0 -418 224 -417h110v266h-147v235h491v-751q-184 -49 -454 -49q-584 0 -584 716.5z" />
<glyph unicode="H" horiz-adv-x="1230" d="M102 0v1393h347v-535h333v535h346v-1393h-346v561h-333v-561h-347z" />
<glyph unicode="I" horiz-adv-x="550" d="M102 0v1393h347v-1393h-347z" />
<glyph unicode="J" horiz-adv-x="700" d="M20 29v250h123q51 0 81 23.5t30 66.5v1024h344v-1086q0 -147 -81 -237t-251 -90q-115 0 -246 49z" />
<glyph unicode="K" horiz-adv-x="1300" d="M102 0v1393h347v-541h86l321 541h391l-416 -652l439 -741h-416l-319 565h-86v-565h-347z" />
<glyph unicode="L" horiz-adv-x="1024" d="M102 0v1393h347v-1096h538v-297h-885z" />
<glyph unicode="M" horiz-adv-x="1550" d="M72 0l80 1393h428l194 -803h4l187 803h428l86 -1393h-328l-55 788h-4l-156 -788h-322l-161 788h-4l-50 -788h-327z" />
<glyph unicode="N" horiz-adv-x="1273" d="M102 0v1393h347l389 -797h4v797h329v-1393h-344l-393 748h-2v-748h-330z" />
<glyph unicode="O" horiz-adv-x="1320" d="M82 696.5q0 716.5 577 716.5q580 0 580 -716.5t-580 -716.5q-577 0 -577 716.5zM442 696q0 -88 7.5 -150.5t28 -129t66.5 -102t115 -35.5q72 0 118 35.5t66.5 102t28 129t7.5 150.5t-7.5 150.5t-28 129t-66.5 102.5t-118 36q-70 0 -115.5 -36t-66 -102.5t-28 -129 t-7.5 -150.5z" />
<glyph unicode="P" horiz-adv-x="1177" d="M102 0v1393h543q219 0 345 -126t126 -345.5t-126 -341t-345 -121.5h-196v-459h-347zM449 756h139q168 0 168 166q0 174 -168 174h-139v-340z" />
<glyph unicode="Q" horiz-adv-x="1320" d="M82 696q0 717 577 717q580 0 580 -717q0 -612 -420 -700v-57q0 -78 90 -78h138v-217q-131 -49 -230 -50q-328 0 -328 314v92q-407 90 -407 696zM442 696q0 -88 7.5 -150.5t28 -129t66.5 -102t115 -35.5q72 0 118 35.5t66.5 102t28 129t7.5 150.5t-7.5 150.5t-28 129 t-66.5 102.5t-118 36q-70 0 -115.5 -36t-66 -102.5t-28 -129t-7.5 -150.5z" />
<glyph unicode="R" horiz-adv-x="1210" d="M102 0v1393h543q215 0 343 -127t128 -326q0 -131 -58.5 -230.5t-164.5 -148.5l297 -561h-367l-256 494h-118v-494h-347zM449 791h122q92 0 138.5 31.5t46.5 117.5q0 156 -152 156h-155v-305z" />
<glyph unicode="S" horiz-adv-x="1134" d="M70 29v250h483q152 0 152 112q0 20 -5.5 36.5t-20.5 31t-28.5 24t-43 21.5t-48 18t-61.5 19.5t-66 21.5q-168 55 -265 167t-97 280q0 190 136 296.5t357 106.5q236 0 420 -49v-250h-416q-137 0 -137 -98q0 -59 55.5 -94t196.5 -74q184 -53 283.5 -156.5t99.5 -277.5 q0 -195 -136 -314.5t-364 -119.5q-311 0 -495 49z" />
<glyph unicode="T" horiz-adv-x="1083" d="M35 1096v297h1012v-297h-332v-1096h-346v1096h-334z" />
<glyph unicode="U" horiz-adv-x="1257" d="M102 492v901h347v-901q0 -213 180 -213t180 213v901h346v-901q0 -262 -142.5 -387t-384 -125t-384 125t-142.5 387z" />
<glyph unicode="V" horiz-adv-x="1335" d="M31 1393h379l256 -1004h4l256 1004h379l-390 -1403h-493z" />
<glyph unicode="W" horiz-adv-x="1796" d="M31 1393h420l149 -863h4l127 873h354l154 -873h4l129 863h393l-317 -1403h-414l-137 743h-4l-135 -743h-404z" />
<glyph unicode="X" horiz-adv-x="1314" d="M25 0l415 731l-385 662h412l205 -420l213 420h377l-385 -660l413 -733h-416l-237 457l-234 -457h-378z" />
<glyph unicode="Y" horiz-adv-x="1243" d="M31 1393h391l207 -531h4l209 531h370l-417 -918v-475h-346v475z" />
<glyph unicode="Z" horiz-adv-x="1126" d="M55 0v256l557 840h-516v297h953v-256l-549 -840h569v-297h-1014z" />
<glyph unicode="[" horiz-adv-x="669" d="M102 -307v2007h523v-297h-176v-1413h176v-297h-523z" />
<glyph unicode="\" horiz-adv-x="1069" d="M25 1393h297l722 -1393h-296z" />
<glyph unicode="]" horiz-adv-x="669" d="M45 -10h178v1413h-178v297h522v-2007h-522v297z" />
<glyph unicode="^" horiz-adv-x="1028" d="M123 532l266 492h250l266 -492h-237l-154 267l-154 -267h-237z" />
<glyph unicode="_" horiz-adv-x="983" d="M102 -78h779v-188h-779v188z" />
<glyph unicode="`" horiz-adv-x="636" d="M123 1434h278l113 -287h-223z" />
<glyph unicode="a" horiz-adv-x="1042" d="M59 305q0 94 32 160.5t85 99.5t107.5 46.5t115.5 13.5h234v59q0 51 -26.5 72.5t-100.5 21.5h-383v217q250 49 422 49q213 0 314.5 -72.5t101.5 -273.5v-698h-297l-31 111h-4q-53 -74 -116.5 -102.5t-158.5 -28.5q-139 0 -217 93t-78 232zM387 328q0 -98 113 -99 q49 0 91 32t42 101v66h-131q-115 0 -115 -100z" />
<glyph unicode="b" horiz-adv-x="1095" d="M82 0v1434h328v-521h4q51 70 106 100.5t137 30.5q188 0 282.5 -137t94.5 -387t-119.5 -385t-359.5 -135h-473zM410 260h122q158 0 158 260q0 135 -29.5 200.5t-115.5 65.5q-49 0 -92 -32.5t-43 -100.5v-393z" />
<glyph unicode="c" horiz-adv-x="931" d="M61 512q0 532 496 532q143 0 328 -49v-217h-328q-86 0 -118.5 -63.5t-32.5 -202.5t32.5 -202.5t118.5 -63.5h328v-217q-184 -49 -328 -49q-496 0 -496 532z" />
<glyph unicode="d" horiz-adv-x="1095" d="M61 512q0 254 114 393t349 139q70 0 162 -12v402h328v-1434h-297l-31 111h-4q-96 -131 -244 -131q-190 0 -283.5 139t-93.5 393zM406 512q0 -141 28.5 -208.5t116.5 -67.5q49 0 92 33.5t43 101.5v407h-123q-86 0 -121.5 -66.5t-35.5 -199.5z" />
<glyph unicode="e" d="M61 512q0 254 129 393t396 139q209 0 318.5 -98t109.5 -235q0 -297 -305 -297h-299q12 -168 147 -168h379v-217q-184 -49 -379 -49q-496 0 -496 532zM414 608h176q45 0 70.5 23.5t25.5 60.5q0 35 -29.5 60.5t-78.5 25.5q-141 0 -164 -170z" />
<glyph unicode="f" horiz-adv-x="761" d="M20 776v197l138 51v117q0 145 78.5 229t248.5 84q100 0 232 -49v-217h-139q-92 0 -93 -78v-86h232v-248h-232v-776h-327v776h-138z" />
<glyph unicode="g" horiz-adv-x="1095" d="M61 504q0 250 120 385t360 135h473v-922q0 -532 -498 -532q-188 0 -373 49v217h389q86 0 120 56.5t34 162.5v56h-4q-96 -131 -244 -131q-190 0 -283.5 136t-93.5 388zM406 504q0 -137 29.5 -202.5t115.5 -65.5q49 0 92 33.5t43 101.5v393h-123q-157 0 -157 -260z" />
<glyph unicode="h" d="M82 0v1434h328v-521h4q104 131 282 131q152 0 224.5 -88t72.5 -235v-721h-327v690q0 55 -37 80t-84 25q-49 0 -92 -34t-43 -102v-659h-328z" />
<glyph unicode="i" horiz-adv-x="491" d="M82 0v1024h328v-1024h-328zM82 1130v304h328v-304h-328z" />
<glyph unicode="j" horiz-adv-x="491" d="M82 -410v1434h328v-1024q0 -236 -111 -410h-217zM82 1130v304h328v-304h-328z" />
<glyph unicode="k" horiz-adv-x="1140" d="M82 0v1434h328v-791h53l268 381h348l-327 -459l389 -565h-383l-287 422h-61v-422h-328z" />
<glyph unicode="l" horiz-adv-x="563" d="M82 322v1112h328v-1112q0 -47 24.5 -61.5t108.5 -14.5v-256q-67 -4 -122 -4q-68 0 -117 6q-87 10 -138 51t-67.5 103.5t-16.5 175.5z" />
<glyph unicode="m" horiz-adv-x="1658" d="M82 0v1024h297l31 -111h4q104 131 282 131q207 0 271 -165h8q100 166 305 165q152 0 224.5 -88t72.5 -235v-721h-328v690q0 55 -36.5 80t-84 25t-90.5 -31t-45 -92v-672h-327v690q0 55 -37 80t-84 25q-49 0 -92 -34t-43 -102v-659h-328z" />
<glyph unicode="n" d="M82 0v1024h297l31 -111h4q104 131 282 131q152 0 224.5 -88t72.5 -235v-721h-327v690q0 55 -37 80t-84 25q-49 0 -92 -34t-43 -102v-659h-328z" />
<glyph unicode="o" horiz-adv-x="1116" d="M61 512q0 532 496 532q498 0 498 -532t-498 -532q-496 0 -496 532zM406 512q0 -139 32.5 -203.5t118.5 -64.5q88 0 121 64.5t33 203.5t-33 203.5t-121 64.5q-86 0 -118.5 -64.5t-32.5 -203.5z" />
<glyph unicode="p" horiz-adv-x="1095" d="M82 -410v1434h297l31 -111h4q51 70 106 100.5t137 30.5q188 0 282.5 -140t94.5 -392q0 -254 -113.5 -393t-349.5 -139q-70 0 -161 12v-402h-328zM410 246h122q86 0 122 65.5t36 200.5q0 141 -28.5 207.5t-116.5 66.5q-49 0 -92 -32.5t-43 -100.5v-407z" />
<glyph unicode="q" horiz-adv-x="1095" d="M61 504q0 250 120 385t360 135h473v-1434h-328v521h-4q-96 -131 -244 -131q-190 0 -283.5 136t-93.5 388zM406 504q0 -137 29.5 -202.5t115.5 -65.5q49 0 92 33.5t43 101.5v393h-123q-157 0 -157 -260z" />
<glyph unicode="r" horiz-adv-x="798" d="M82 0v1024h297l31 -166h4q90 186 313 186v-315h-82q-131 0 -183 -40t-52 -116v-573h-328z" />
<glyph unicode="s" horiz-adv-x="985" d="M61 29v217h400q102 0 102 65q0 51 -98 70q-70 12 -112 21.5t-104.5 35t-97 57t-61.5 90t-27 134.5q0 168 126 246.5t327 78.5q178 0 363 -49v-217h-347q-111 0 -110 -59q0 -27 20.5 -43.5t77.5 -28.5q49 -8 79 -14t77 -19.5t76.5 -29t65.5 -41t56.5 -57t35 -76.5 t14.5 -99q0 -174 -121 -252.5t-324 -78.5q-234 0 -418 49z" />
<glyph unicode="t" horiz-adv-x="761" d="M20 776v197l138 51l159 287h168v-287h232v-248h-232v-454q0 -76 93 -76h139v-217q-131 -49 -232 -49q-328 0 -327 311v485h-138z" />
<glyph unicode="u" d="M82 301v723h328v-692q0 -53 35.5 -78t85 -25t92.5 33t43 100v662h327v-1024h-297l-30 111h-4q-106 -131 -283 -131q-152 0 -224.5 87t-72.5 234z" />
<glyph unicode="v" horiz-adv-x="1116" d="M20 1024h369l172 -653h4l176 653h355l-342 -1034h-402z" />
<glyph unicode="w" horiz-adv-x="1548" d="M20 1024h369l125 -571h4l109 571h309l133 -571h4l109 571h346l-277 -1034h-362l-115 465h-4l-117 -465h-354z" />
<glyph unicode="x" horiz-adv-x="1134" d="M31 0l342 549l-314 475h373l148 -260l155 260h338l-313 -475l344 -549h-381l-176 301l-172 -301h-344z" />
<glyph unicode="y" horiz-adv-x="1116" d="M20 1024h369l176 -653h4l172 653h355l-305 -918q-49 -150 -149.5 -305t-176.5 -231l-244 102l172 322z" />
<glyph unicode="z" horiz-adv-x="960" d="M45 0v233l440 535h-419v256h823v-233l-436 -535h460v-256h-868z" />
<glyph unicode="{" horiz-adv-x="720" d="M76 612v168q92 12 114.5 56.5t22.5 156.5v387q0 84 26.5 145.5t65.5 94.5t104.5 51.5t123 23.5t141.5 5v-225q-70 0 -106 -33t-36 -135v-367q0 -221 -213 -242v-4q213 -20 213 -241v-369q0 -100 36 -134t106 -34v-223q-84 0 -141.5 5t-123 23.5t-104.5 51t-65.5 94 t-26.5 145.5v387q0 47 -1 72t-8 53.5t-21.5 43t-41 26.5t-65.5 18z" />
<glyph unicode="|" horiz-adv-x="452" d="M102 -205v1802h248v-1802h-248z" />
<glyph unicode="}" horiz-adv-x="720" d="M45 -84q70 0 106.5 34t36.5 134v369q0 221 213 241v4q-213 20 -213 242v367q0 102 -35.5 135t-107.5 33v225q84 0 142.5 -5t124 -23.5t104.5 -51.5t65.5 -94.5t26.5 -145.5v-387q0 -78 5 -112.5t36 -63.5t94 -37v-168q-92 -12 -113.5 -56t-21.5 -157v-387 q0 -84 -26.5 -145.5t-65.5 -94t-104.5 -51t-124 -23.5t-142.5 -5v223z" />
<glyph unicode="~" horiz-adv-x="952" d="M123 801q88 104 225 104q51 0 138 -31.5t118 -31.5q98 0 176 59l49 -174q-92 -104 -225 -104q-47 0 -135 31.5t-121 31.5q-98 0 -176 -59z" />
<glyph unicode="&#xa1;" horiz-adv-x="460" d="M82 168l33 410h231l33 -410v-537h-297v537zM82 721v303h297v-303h-297z" />
<glyph unicode="&#xa2;" horiz-adv-x="987" d="M82 512q0 496 432 530v187h125v-187q109 -6 266 -47v-217h-327q-86 0 -119 -63.5t-33 -202.5t33 -202.5t119 -63.5h327v-217q-158 -41 -266 -47v-187h-125v187q-432 30 -432 530z" />
<glyph unicode="&#xa3;" horiz-adv-x="1167" d="M82 629v129h92v51q0 106 11.5 187t45 163t93 135.5t162 86t241.5 32.5q154 0 338 -49v-250h-277q-158 0 -205.5 -64.5t-47.5 -226.5v-65h325v-129h-325v-332h550v-297h-999v297h88v332h-92z" />
<glyph unicode="&#xa4;" horiz-adv-x="1028" d="M139 928l17 16l157 -184q90 74 201 74t199 -74l157 184l19 -16l-158 -183q100 -96 100 -235t-98 -234l154 -176l-19 -18l-155 178q-84 -72 -199 -72q-113 0 -201 72l-151 -178l-19 18l152 176q-96 96 -96 233.5t96 233.5zM223 510q0 -121 86 -209t205 -88t206 88t87 209 t-87 210t-206 89t-205 -89t-86 -210z" />
<glyph unicode="&#xa5;" horiz-adv-x="1284" d="M51 1393h391l207 -531h4l209 531h371l-383 -840h256v-129h-291v-424h-346v424h-293v129h256z" />
<glyph unicode="&#xa6;" horiz-adv-x="452" d="M102 -205v778h248v-778h-248zM102 819v778h248v-778h-248z" />
<glyph unicode="&#xa7;" horiz-adv-x="1046" d="M92 -43v217h400q102 0 102 66q0 51 -98 69q-57 10 -92 18.5t-89.5 26t-87 42t-66.5 62.5t-50.5 93t-16.5 127h359q0 -82 98 -103q49 -8 78.5 -14t77 -19.5t77 -28.5t65.5 -41t56.5 -57.5t34.5 -76.5t14 -98q0 -174 -120.5 -253t-323.5 -79q-234 0 -418 49zM94 1159 q0 168 126 247t327 79q178 0 362 -49v-217h-346q-111 0 -110 -60q0 -27 20.5 -43t77.5 -29q70 -12 110.5 -22t104 -37t98.5 -61.5t62.5 -98t27.5 -147.5h-360q0 82 -98 100q-70 12 -112 21.5t-104.5 35t-97.5 57.5t-61.5 90t-26.5 134z" />
<glyph unicode="&#xa8;" horiz-adv-x="983" d="M123 1161v303h280v-303h-280zM578 1161v303h282v-303h-282z" />
<glyph unicode="&#xa9;" horiz-adv-x="1531" d="M72 696q0 297 202.5 500t491.5 203t491.5 -203t202.5 -500t-202.5 -499.5t-491.5 -202.5t-491.5 202.5t-202.5 499.5zM215 696.5q0 -237.5 160 -402.5t391 -165q229 0 390 165t161 402.5t-161 397t-390 159.5q-233 0 -392 -159.5t-159 -397zM479 696.5q0 358.5 291 358.5 q115 0 207 -27v-123h-176q-141 0 -142 -209q0 -94 29 -151.5t113 -57.5h176v-127q-88 -23 -207 -22q-291 0 -291 358.5z" />
<glyph unicode="&#xaa;" horiz-adv-x="608" d="M76 1034q0 160 172 160h114v29q0 43 -59 43h-194v112q127 25 213 25q109 0 158.5 -36t49.5 -138v-348h-151l-17 55h-2q-47 -66 -135 -66q-72 0 -110.5 47t-38.5 117zM246 1046.5q0 -47.5 53 -47.5q23 0 43 15.5t20 48.5v31h-63q-53 0 -53 -47.5z" />
<glyph unicode="&#xab;" horiz-adv-x="1417" d="M102 442v201l588 342v-285l-266 -157l266 -160v-283zM727 442v201l588 342v-285l-266 -157l266 -160v-283z" />
<glyph unicode="&#xac;" horiz-adv-x="1099" d="M72 410v266h956v-477h-268v211h-688z" />
<glyph unicode="&#xad;" horiz-adv-x="983" d="M102 410v266h779v-266h-779z" />
<glyph unicode="&#xae;" horiz-adv-x="1531" d="M72 696q0 297 202.5 500t491.5 203t491.5 -203t202.5 -500t-202.5 -499.5t-491.5 -202.5t-491.5 202.5t-202.5 499.5zM215 696.5q0 -237.5 160 -402.5t391 -165q229 0 390 165t161 402.5t-161 397t-390 159.5q-233 0 -392 -159.5t-159 -397zM516 348v696h272 q106 0 171 -63t65 -164q0 -137 -113 -188l150 -281h-182l-129 246h-60v-246h-174zM690 743h62q47 0 69.5 15.5t22.5 58.5q0 78 -76 78h-78v-152z" />
<glyph unicode="&#xaf;" horiz-adv-x="870" d="M123 1171v222h625v-222h-625z" />
<glyph unicode="&#xb0;" horiz-adv-x="581" d="M41 1161q0 242 250 242t250 -242q0 -240 -250 -240t-250 240zM219 1161q0 -104 71.5 -104t71.5 104q0 53 -15 79t-56 26t-56.5 -26t-15.5 -79z" />
<glyph unicode="&#xb1;" horiz-adv-x="983" d="M102 51v174h779v-174h-779zM102 543v174h301v256h175v-256h303v-174h-303v-256h-175v256h-301z" />
<glyph unicode="&#xb2;" horiz-adv-x="598" d="M61 1044v162q184 176 233.5 238.5t49.5 101.5q0 51 -68 51h-204v129q86 25 211 25q111 0 179 -52t68 -143q0 -70 -47 -142.5t-198 -213.5v-2h252v-154h-476z" />
<glyph unicode="&#xb3;" horiz-adv-x="583" d="M61 1059v129h197q78 0 78 61q0 41 -40 61.5t-202 71.5v56l166 149h-186v154h432v-146l-168 -129q98 -35 141 -85t43 -132q0 -96 -64.5 -155.5t-185.5 -59.5q-125 0 -211 25z" />
<glyph unicode="&#xb4;" horiz-adv-x="636" d="M123 1147l113 287h278l-168 -287h-223z" />
<glyph unicode="&#xb5;" d="M82 -410v1434h328v-662q0 -68 35.5 -100.5t91.5 -32.5q57 0 93 33t36 100v662h327v-645q0 -115 -39 -196t-107.5 -124t-144 -61t-165.5 -18q-59 0 -127 10v-400h-328z" />
<glyph unicode="&#xb6;" horiz-adv-x="1187" d="M102 921.5q0 219.5 126 345.5t345 126h277v-1393h-131v459h-146q-219 0 -345 121.5t-126 341zM954 0v1393h131v-1393h-131z" />
<glyph unicode="&#xb7;" horiz-adv-x="464" d="M92 485v303h281v-303h-281z" />
<glyph unicode="&#xb8;" horiz-adv-x="632" d="M123 -279h94q72 0 72 46q0 57 -96 69v164h137v-90q180 -20 180 -152q0 -168 -231 -168q-70 0 -156 17v114z" />
<glyph unicode="&#xb9;" horiz-adv-x="598" d="M61 1044v154h146v373l-82 -43l-59 127l157 92h162v-549h152v-154h-476z" />
<glyph unicode="&#xba;" horiz-adv-x="653" d="M76 1136.5q0 266.5 252 266.5q250 0 250 -266.5t-250 -266.5q-252 0 -252 266.5zM254 1137q0 -68 15.5 -99.5t58.5 -31.5q41 0 56 31.5t15 99.5q0 70 -15 99.5t-56 29.5q-43 0 -58.5 -29.5t-15.5 -99.5z" />
<glyph unicode="&#xbb;" horiz-adv-x="1417" d="M102 100v283l267 160l-267 157v285l588 -342v-201zM727 100v283l266 160l-266 157v285l588 -342v-201z" />
<glyph unicode="&#xbc;" horiz-adv-x="1587" d="M61 696v154h146v373l-82 -43l-59 127l157 92h162v-549h152v-154h-476zM440 0l721 1393h139l-722 -1393h-138zM997 125v158l242 419h180l-245 -423h114l49 129h129v-129h60v-154h-60v-125h-178v125h-291z" />
<glyph unicode="&#xbd;" horiz-adv-x="1587" d="M61 696v154h146v373l-82 -43l-59 127l157 92h162v-549h152v-154h-476zM379 0l721 1393h139l-723 -1393h-137zM1051 0v162q184 176 233 238.5t49 101.5q0 51 -67 51h-205v129q86 25 211 25q111 0 179.5 -52.5t68.5 -142.5q0 -70 -47.5 -142.5t-198.5 -213.5v-2h252v-154 h-475z" />
<glyph unicode="&#xbe;" horiz-adv-x="1587" d="M61 711v129h197q78 0 78 61q0 41 -40 61.5t-202 71.5v56l166 149h-186v154h432v-146l-168 -129q98 -35 141 -85t43 -132q0 -96 -64.5 -155.5t-185.5 -59.5q-125 0 -211 25zM399 0l721 1393h140l-723 -1393h-138zM997 125v158l242 419h180l-245 -423h114l49 129h129v-129 h60v-154h-60v-125h-178v125h-291z" />
<glyph unicode="&#xbf;" horiz-adv-x="1052" d="M70 18q0 358 442 471l8 89h250l16 -304q-209 -61 -278 -112q-78 -57 -78 -135q0 -49 34 -83t103 -34h416v-250q-184 -49 -420 -49q-223 0 -358 106t-135 301zM496 721v303h297v-303h-297z" />
<glyph unicode="&#xc0;" horiz-adv-x="1335" d="M31 0l387 1403h495l392 -1403h-379l-74 287h-371l-71 -287h-379zM401 1782h279l113 -287h-224zM541 553h250l-125 465h-2z" />
<glyph unicode="&#xc1;" horiz-adv-x="1335" d="M31 0l387 1403h495l392 -1403h-379l-74 287h-371l-71 -287h-379zM541 553h250l-125 465h-2zM553 1495l113 287h278l-168 -287h-223z" />
<glyph unicode="&#xc2;" horiz-adv-x="1335" d="M31 0l387 1403h495l392 -1403h-379l-74 287h-371l-71 -287h-379zM338 1495l205 287h250l204 -287h-237l-92 107l-93 -107h-237zM541 553h250l-125 465h-2z" />
<glyph unicode="&#xc3;" horiz-adv-x="1335" d="M31 0l387 1403h495l392 -1403h-379l-74 287h-371l-71 -287h-379zM315 1661q88 104 226 104q51 0 138 -31.5t118 -31.5q98 0 176 59l49 -174q-92 -104 -225 -104q-47 0 -135.5 31.5t-120.5 31.5q-98 0 -176 -59zM541 553h250l-125 465h-2z" />
<glyph unicode="&#xc4;" horiz-adv-x="1335" d="M31 0l387 1403h495l392 -1403h-379l-74 287h-371l-71 -287h-379zM299 1509v303h281v-303h-281zM541 553h250l-125 465h-2zM754 1509v303h282v-303h-282z" />
<glyph unicode="&#xc5;" horiz-adv-x="1335" d="M31 0l387 1403h495l392 -1403h-379l-74 287h-371l-71 -287h-379zM467 1618q0 164 203 164q201 0 200.5 -164t-200.5 -164q-203 0 -203 164zM541 553h250l-125 465h-2zM612 1618q0 -41 12.5 -57.5t45.5 -16.5q31 0 43 16.5t12 57.5q0 39 -12.5 55.5t-42.5 16.5 q-33 0 -45.5 -16.5t-12.5 -55.5z" />
<glyph unicode="&#xc6;" horiz-adv-x="1894" d="M31 0l684 1393h1102v-297h-566v-238h469v-297h-469v-264h566v-297h-912v287h-364l-131 -287h-379zM657 553h248v465h-26z" />
<glyph unicode="&#xc7;" horiz-adv-x="1140" d="M82 696q0 717 584 717q229 0 413 -49v-250h-352q-90 0 -150.5 -36t-87 -101.5t-37 -130t-10.5 -150.5t10.5 -150.5t37 -130t87 -101t150.5 -35.5h352v-250q-160 -43 -354 -47v-72q70 -8 124 -43t54 -109q0 -168 -229 -168q-72 0 -158 17v114h96q72 0 72 46q0 57 -98 69 v148q-504 46 -504 712z" />
<glyph unicode="&#xc8;" horiz-adv-x="1089" d="M102 0v1393h912v-297h-565v-238h469v-297h-469v-264h565v-297h-912zM309 1782h279l112 -287h-223z" />
<glyph unicode="&#xc9;" horiz-adv-x="1089" d="M102 0v1393h912v-297h-565v-238h469v-297h-469v-264h565v-297h-912zM440 1495l113 287h278l-167 -287h-224z" />
<glyph unicode="&#xca;" horiz-adv-x="1089" d="M102 0v1393h912v-297h-565v-238h469v-297h-469v-264h565v-297h-912zM250 1495l205 287h250l204 -287h-237l-92 107l-93 -107h-237z" />
<glyph unicode="&#xcb;" horiz-adv-x="1089" d="M102 0v1393h912v-297h-565v-238h469v-297h-469v-264h565v-297h-912zM199 1509v303h280v-303h-280zM653 1509v303h283v-303h-283z" />
<glyph unicode="&#xcc;" horiz-adv-x="550" d="M-27 1782h279l113 -287h-224zM86 0v1393h346v-1393h-346z" />
<glyph unicode="&#xcd;" horiz-adv-x="550" d="M86 0v1393h346v-1393h-346zM147 1495l113 287h279l-168 -287h-224z" />
<glyph unicode="&#xce;" horiz-adv-x="550" d="M-55 1495l205 287h249l205 -287h-237l-93 107l-92 -107h-237zM84 0v1393h346v-1393h-346z" />
<glyph unicode="&#xcf;" horiz-adv-x="550" d="M-94 1509v303h280v-303h-280zM88 0v1393h346v-1393h-346zM360 1509v303h283v-303h-283z" />
<glyph unicode="&#xd0;" horiz-adv-x="1284" d="M-31 635v143h133v615h516q584 0 584 -696.5t-584 -696.5h-516v635h-133zM449 297h124q84 0 140.5 32.5t83 95t36 125t9.5 146.5t-9.5 146.5t-36 125t-83 95.5t-140.5 33h-124v-318h155v-143h-155v-338z" />
<glyph unicode="&#xd1;" horiz-adv-x="1273" d="M102 0v1393h347l389 -797h4v797h329v-1393h-344l-393 748h-2v-748h-330zM285 1661q88 104 225 104q51 0 138 -31.5t118 -31.5q98 0 176 59l49 -174q-92 -104 -225 -104q-45 0 -133 31.5t-123 31.5q-98 0 -176 -59z" />
<glyph unicode="&#xd2;" horiz-adv-x="1320" d="M82 696.5q0 716.5 577 716.5q580 0 580 -716.5t-580 -716.5q-577 0 -577 716.5zM365 1782h278l113 -287h-224zM442 696q0 -88 7.5 -150.5t28 -129t66.5 -102t115 -35.5q72 0 118 35.5t66.5 102t28 129t7.5 150.5t-7.5 150.5t-28 129t-66.5 102.5t-118 36 q-70 0 -115.5 -36t-66 -102.5t-28 -129t-7.5 -150.5z" />
<glyph unicode="&#xd3;" horiz-adv-x="1320" d="M82 696.5q0 716.5 577 716.5q580 0 580 -716.5t-580 -716.5q-577 0 -577 716.5zM442 696q0 -88 7.5 -150.5t28 -129t66.5 -102t115 -35.5q72 0 118 35.5t66.5 102t28 129t7.5 150.5t-7.5 150.5t-28 129t-66.5 102.5t-118 36q-70 0 -115.5 -36t-66 -102.5t-28 -129 t-7.5 -150.5zM559 1495l113 287h278l-168 -287h-223z" />
<glyph unicode="&#xd4;" horiz-adv-x="1320" d="M82 696.5q0 716.5 577 716.5q580 0 580 -716.5t-580 -716.5q-577 0 -577 716.5zM330 1495l205 287h249l205 -287h-237l-93 107l-92 -107h-237zM442 696q0 -88 7.5 -150.5t28 -129t66.5 -102t115 -35.5q72 0 118 35.5t66.5 102t28 129t7.5 150.5t-7.5 150.5t-28 129 t-66.5 102.5t-118 36q-70 0 -115.5 -36t-66 -102.5t-28 -129t-7.5 -150.5z" />
<glyph unicode="&#xd5;" horiz-adv-x="1320" d="M82 696.5q0 716.5 577 716.5q580 0 580 -716.5t-580 -716.5q-577 0 -577 716.5zM307 1661q88 104 225 104q51 0 138.5 -31.5t117.5 -31.5q98 0 177 59l49 -174q-92 -104 -226 -104q-47 0 -135 31.5t-121 31.5q-98 0 -176 -59zM442 696q0 -88 7.5 -150.5t28 -129 t66.5 -102t115 -35.5q72 0 118 35.5t66.5 102t28 129t7.5 150.5t-7.5 150.5t-28 129t-66.5 102.5t-118 36q-70 0 -115.5 -36t-66 -102.5t-28 -129t-7.5 -150.5z" />
<glyph unicode="&#xd6;" horiz-adv-x="1320" d="M82 696.5q0 716.5 577 716.5q580 0 580 -716.5t-580 -716.5q-577 0 -577 716.5zM291 1509v303h280v-303h-280zM442 696q0 -88 7.5 -150.5t28 -129t66.5 -102t115 -35.5q72 0 118 35.5t66.5 102t28 129t7.5 150.5t-7.5 150.5t-28 129t-66.5 102.5t-118 36 q-70 0 -115.5 -36t-66 -102.5t-28 -129t-7.5 -150.5zM745 1509v303h283v-303h-283z" />
<glyph unicode="&#xd7;" horiz-adv-x="1058" d="M102 303l240 240l-240 239l189 189l239 -240l240 240l186 -189l-239 -239l239 -240l-186 -188l-240 239l-239 -239z" />
<glyph unicode="&#xd8;" horiz-adv-x="1320" d="M82 696q0 717 577 717q199 0 332 -86l88 148h82l-112 -191q190 -174 190 -588q0 -717 -580 -716q-207 0 -333 86l-86 -148h-82l112 191q-188 175 -188 587zM442 696q0 -166 25 -256l350 592q-55 82 -158 82q-70 0 -115.5 -36t-66 -102.5t-28 -129t-7.5 -150.5zM502 360 q53 -82 157 -81q72 0 118 35.5t66.5 102t28 129t7.5 150.5q0 166 -27 256z" />
<glyph unicode="&#xd9;" horiz-adv-x="1257" d="M102 492v901h347v-901q0 -213 180 -213t180 213v901h346v-901q0 -262 -142.5 -387t-384 -125t-384 125t-142.5 387zM365 1782h278l113 -287h-224z" />
<glyph unicode="&#xda;" horiz-adv-x="1257" d="M102 492v901h347v-901q0 -213 180 -213t180 213v901h346v-901q0 -262 -142.5 -387t-384 -125t-384 125t-142.5 387zM508 1495l113 287h278l-168 -287h-223z" />
<glyph unicode="&#xdb;" horiz-adv-x="1257" d="M102 492v901h347v-901q0 -213 180 -213t180 213v901h346v-901q0 -262 -142.5 -387t-384 -125t-384 125t-142.5 387zM297 1495l205 287h250l204 -287h-237l-92 107l-92 -107h-238z" />
<glyph unicode="&#xdc;" horiz-adv-x="1257" d="M102 492v901h347v-901q0 -213 180 -213t180 213v901h346v-901q0 -262 -142.5 -387t-384 -125t-384 125t-142.5 387zM260 1509v303h281v-303h-281zM715 1509v303h282v-303h-282z" />
<glyph unicode="&#xdd;" horiz-adv-x="1243" d="M31 1393h391l207 -531h4l209 531h370l-417 -918v-475h-346v475zM510 1495l113 287h278l-168 -287h-223z" />
<glyph unicode="&#xde;" horiz-adv-x="1177" d="M102 0v1393h347v-226h196q219 0 345 -126t126 -345t-126 -341t-345 -122h-196v-233h-347zM449 530h139q168 0 168 166q0 174 -168 174h-139v-340z" />
<glyph unicode="&#xdf;" horiz-adv-x="1292" d="M29 776v197l137 51q0 117 42 200t115.5 127t156.5 63.5t184 19.5q197 0 318.5 -74t121.5 -223q0 -66 -27.5 -126.5t-62.5 -96t-62.5 -74.5t-27.5 -68q0 -41 30.5 -78t73.5 -71.5t86 -73.5t74 -100.5t31 -137.5q0 -115 -57.5 -192.5t-134.5 -108t-163 -30.5 q-172 0 -282 49v217h172q53 0 79.5 22.5t26.5 59.5q0 29 -39 75t-87 90t-87 106.5t-39 119.5q0 74 72 183.5t72 162.5q0 51 -35 77.5t-92 26.5q-131 0 -131 -145v-1024h-328v776h-137z" />
<glyph unicode="&#xe0;" horiz-adv-x="1042" d="M37 305q0 94 31.5 160.5t85 99.5t107.5 46.5t116 13.5h233v59q0 51 -26.5 72.5t-100.5 21.5h-383v217q250 49 422 49q213 0 314.5 -72.5t101.5 -273.5v-698h-297l-31 111h-4q-53 -74 -116.5 -102.5t-157.5 -28.5q-139 0 -217 93t-78 232zM266 1434h279l112 -287h-223z M365 328q0 -98 112 -99q49 0 91 32t42 101v66h-131q-114 0 -114 -100z" />
<glyph unicode="&#xe1;" horiz-adv-x="1042" d="M37 305q0 94 31.5 160.5t85 99.5t107.5 46.5t116 13.5h233v59q0 51 -26.5 72.5t-100.5 21.5h-383v217q250 49 422 49q213 0 314.5 -72.5t101.5 -273.5v-698h-297l-31 111h-4q-53 -74 -116.5 -102.5t-157.5 -28.5q-139 0 -217 93t-78 232zM365 328q0 -98 112 -99 q49 0 91 32t42 101v66h-131q-114 0 -114 -100zM391 1147l113 287h278l-168 -287h-223z" />
<glyph unicode="&#xe2;" horiz-adv-x="1042" d="M37 305q0 94 31.5 160.5t85 99.5t107.5 46.5t116 13.5h233v59q0 51 -26.5 72.5t-100.5 21.5h-383v217q250 49 422 49q213 0 314.5 -72.5t101.5 -273.5v-698h-297l-31 111h-4q-53 -74 -116.5 -102.5t-157.5 -28.5q-139 0 -217 93t-78 232zM203 1147l205 287h249l205 -287 h-237l-93 106l-92 -106h-237zM365 328q0 -98 112 -99q49 0 91 32t42 101v66h-131q-114 0 -114 -100z" />
<glyph unicode="&#xe3;" horiz-adv-x="1042" d="M37 305q0 94 31.5 160.5t85 99.5t107.5 46.5t116 13.5h233v59q0 51 -26.5 72.5t-100.5 21.5h-383v217q250 49 422 49q213 0 314.5 -72.5t101.5 -273.5v-698h-297l-31 111h-4q-53 -74 -116.5 -102.5t-157.5 -28.5q-139 0 -217 93t-78 232zM172 1313q88 104 225 104 q51 0 138.5 -31.5t117.5 -31.5q98 0 176 59l50 -174q-92 -104 -226 -104q-47 0 -135 31.5t-121 31.5q-98 0 -176 -59zM365 328q0 -98 112 -99q49 0 91 32t42 101v66h-131q-114 0 -114 -100z" />
<glyph unicode="&#xe4;" horiz-adv-x="1042" d="M37 305q0 94 31.5 160.5t85 99.5t107.5 46.5t116 13.5h233v59q0 51 -26.5 72.5t-100.5 21.5h-383v217q250 49 422 49q213 0 314.5 -72.5t101.5 -273.5v-698h-297l-31 111h-4q-53 -74 -116.5 -102.5t-157.5 -28.5q-139 0 -217 93t-78 232zM152 1161v303h280v-303h-280z M365 328q0 -98 112 -99q49 0 91 32t42 101v66h-131q-114 0 -114 -100zM606 1161v303h283v-303h-283z" />
<glyph unicode="&#xe5;" horiz-adv-x="1042" d="M37 305q0 94 31.5 160.5t85 99.5t107.5 46.5t116 13.5h233v59q0 51 -26.5 72.5t-100.5 21.5h-383v217q250 49 422 49q213 0 314.5 -72.5t101.5 -273.5v-698h-297l-31 111h-4q-53 -74 -116.5 -102.5t-157.5 -28.5q-139 0 -217 93t-78 232zM319 1270q0 164 203 164 q201 0 201 -164t-201 -164q-203 0 -203 164zM365 328q0 -98 112 -99q49 0 91 32t42 101v66h-131q-114 0 -114 -100zM465 1270q0 -41 12 -57.5t45 -16.5q31 0 43.5 16.5t12.5 57.5q0 39 -12.5 55t-43.5 16q-33 0 -45 -16t-12 -55z" />
<glyph unicode="&#xe6;" horiz-adv-x="1648" d="M59 305q0 94 32 160.5t85 99.5t107.5 46.5t115.5 13.5h234v59q0 51 -26.5 72.5t-100.5 21.5h-383v217q250 49 422 49q223 0 307 -92q119 92 307 92q209 0 318.5 -98t109.5 -235q0 -297 -305 -297h-299q12 -168 147 -168h379v-217q-184 -49 -379 -49q-287 0 -407 178 q-84 -109 -170 -143.5t-199 -34.5q-139 0 -217 93t-78 232zM387 328q0 -98 113 -99q49 0 91 32t42 101v66h-131q-115 0 -115 -100zM987 608h176q45 0 71 23.5t26 60.5q0 35 -30 60.5t-79 25.5q-141 0 -164 -170z" />
<glyph unicode="&#xe7;" horiz-adv-x="931" d="M61 512q0 532 496 532q143 0 328 -49v-217h-328q-86 0 -118.5 -63.5t-32.5 -202.5t32.5 -202.5t118.5 -63.5h328v-217q-178 -47 -299 -49v-70q180 -20 180 -152q0 -168 -231 -168q-70 0 -156 17v114h94q72 0 72 46q0 57 -96 69v152q-388 51 -388 524z" />
<glyph unicode="&#xe8;" d="M61 512q0 254 129 393t396 139q209 0 318.5 -98t109.5 -235q0 -297 -305 -297h-299q12 -168 147 -168h379v-217q-184 -49 -379 -49q-496 0 -496 532zM311 1434h279l112 -287h-223zM414 608h176q45 0 70.5 23.5t25.5 60.5q0 35 -29.5 60.5t-78.5 25.5q-141 0 -164 -170z " />
<glyph unicode="&#xe9;" d="M61 512q0 254 129 393t396 139q209 0 318.5 -98t109.5 -235q0 -297 -305 -297h-299q12 -168 147 -168h379v-217q-184 -49 -379 -49q-496 0 -496 532zM414 608h176q45 0 70.5 23.5t25.5 60.5q0 35 -29.5 60.5t-78.5 25.5q-141 0 -164 -170zM449 1147l112 287h279 l-168 -287h-223z" />
<glyph unicode="&#xea;" horiz-adv-x="1079" d="M61 512q0 254 129 393t396 139q209 0 318.5 -98t109.5 -235q0 -297 -305 -297h-299q12 -168 147 -168h379v-217q-184 -49 -379 -49q-496 0 -496 532zM229 1147l205 287h250l205 -287h-238l-92 106l-92 -106h-238zM414 608h176q45 0 70.5 23.5t25.5 60.5q0 35 -29.5 60.5 t-78.5 25.5q-141 0 -164 -170z" />
<glyph unicode="&#xeb;" d="M61 512q0 254 129 393t396 139q209 0 318.5 -98t109.5 -235q0 -297 -305 -297h-299q12 -168 147 -168h379v-217q-184 -49 -379 -49q-496 0 -496 532zM188 1161v303h281v-303h-281zM414 608h176q45 0 70.5 23.5t25.5 60.5q0 35 -29.5 60.5t-78.5 25.5q-141 0 -164 -170z M643 1161v303h283v-303h-283z" />
<glyph unicode="&#xec;" horiz-adv-x="491" d="M-33 1434h279l112 -287h-223zM82 0v1024h328v-1024h-328z" />
<glyph unicode="&#xed;" horiz-adv-x="491" d="M82 0v1024h328v-1024h-328zM135 1147l113 287h278l-168 -287h-223z" />
<glyph unicode="&#xee;" horiz-adv-x="491" d="M-84 1147l205 287h250l204 -287h-237l-92 106l-92 -106h-238zM82 0v1024h328v-1024h-328z" />
<glyph unicode="&#xef;" horiz-adv-x="491" d="M-123 1161v303h281v-303h-281zM82 0v1024h328v-1024h-328zM332 1161v303h282v-303h-282z" />
<glyph unicode="&#xf0;" horiz-adv-x="1150" d="M61 424q0 211 120 312.5t386 101.5q66 0 152 -11q-18 111 -60 174l-174 -63l-20 68l141 53q-72 55 -176 55h-276v250q174 49 321 49q324 0 481 -223l140 53l20 -76l-119 -43q92 -178 93 -428q0 -356 -122 -536t-413 -180q-246 0 -370 124.5t-124 319.5zM408 424 q0 -145 139 -145q61 0 99 23.5t53.5 73.5t18.5 86t3 105h-146q-167 0 -167 -143z" />
<glyph unicode="&#xf1;" d="M82 0v1024h297l31 -111h4q104 131 282 131q152 0 224.5 -88t72.5 -235v-721h-327v690q0 55 -37 80t-84 25q-49 0 -92 -34t-43 -102v-659h-328zM184 1313q88 104 226 104q51 0 138 -31.5t118 -31.5q98 0 176 59l49 -174q-92 -104 -225 -104q-47 0 -135.5 31.5t-120.5 31.5 q-98 0 -177 -59z" />
<glyph unicode="&#xf2;" horiz-adv-x="1116" d="M55 512q0 532 496 532q498 0 498 -532t-498 -532q-496 0 -496 532zM281 1434h278l113 -287h-223zM399 512q0 -139 33 -203.5t119 -64.5q88 0 121 64.5t33 203.5t-33 203.5t-121 64.5q-86 0 -119 -64.5t-33 -203.5z" />
<glyph unicode="&#xf3;" horiz-adv-x="1116" d="M55 512q0 532 496 532q498 0 498 -532t-498 -532q-496 0 -496 532zM399 512q0 -139 33 -203.5t119 -64.5q88 0 121 64.5t33 203.5t-33 203.5t-121 64.5q-86 0 -119 -64.5t-33 -203.5zM459 1147l112 287h279l-168 -287h-223z" />
<glyph unicode="&#xf4;" horiz-adv-x="1116" d="M55 512q0 532 496 532q498 0 498 -532t-498 -532q-496 0 -496 532zM227 1147l205 287h250l205 -287h-238l-92 106l-92 -106h-238zM399 512q0 -139 33 -203.5t119 -64.5q88 0 121 64.5t33 203.5t-33 203.5t-121 64.5q-86 0 -119 -64.5t-33 -203.5z" />
<glyph unicode="&#xf5;" horiz-adv-x="1116" d="M55 512q0 532 496 532q498 0 498 -532t-498 -532q-496 0 -496 532zM205 1313q88 104 225 104q51 0 138 -31.5t118 -31.5q98 0 176 59l49 -174q-92 -104 -225 -104q-47 0 -135 31.5t-121 31.5q-98 0 -176 -59zM399 512q0 -139 33 -203.5t119 -64.5q88 0 121 64.5t33 203.5 t-33 203.5t-121 64.5q-86 0 -119 -64.5t-33 -203.5z" />
<glyph unicode="&#xf6;" horiz-adv-x="1116" d="M55 512q0 532 496 532q498 0 498 -532t-498 -532q-496 0 -496 532zM188 1161v303h281v-303h-281zM399 512q0 -139 33 -203.5t119 -64.5q88 0 121 64.5t33 203.5t-33 203.5t-121 64.5q-86 0 -119 -64.5t-33 -203.5zM643 1161v303h283v-303h-283z" />
<glyph unicode="&#xf7;" horiz-adv-x="983" d="M102 410v204h779v-204h-779zM373 53v273h235v-273h-235zM373 698v273h235v-273h-235z" />
<glyph unicode="&#xf8;" horiz-adv-x="1116" d="M61 512q0 532 496 532q156 0 256 -49l68 111h82l-89 -145q180 -125 181 -449q0 -532 -498 -532q-147 0 -252 47l-65 -109h-82l86 141q-183 125 -183 453zM406 512q0 -102 14 -162l239 391q-39 39 -102 39q-86 0 -118.5 -64.5t-32.5 -203.5zM459 279q35 -35 98 -35 q88 0 121 64.5t33 203.5q0 100 -17 156z" />
<glyph unicode="&#xf9;" d="M82 301v723h328v-692q0 -53 35.5 -78t85 -25t92.5 33t43 100v662h327v-1024h-297l-30 111h-4q-106 -131 -283 -131q-152 0 -224.5 87t-72.5 234zM266 1434h279l112 -287h-223z" />
<glyph unicode="&#xfa;" d="M82 301v723h328v-692q0 -53 35.5 -78t85 -25t92.5 33t43 100v662h327v-1024h-297l-30 111h-4q-106 -131 -283 -131q-152 0 -224.5 87t-72.5 234zM432 1147l113 287h278l-168 -287h-223z" />
<glyph unicode="&#xfb;" d="M82 301v723h328v-692q0 -53 35.5 -78t85 -25t92.5 33t43 100v662h327v-1024h-297l-30 111h-4q-106 -131 -283 -131q-152 0 -224.5 87t-72.5 234zM207 1147l205 287h250l204 -287h-237l-92 106l-93 -106h-237z" />
<glyph unicode="&#xfc;" d="M82 301v723h328v-692q0 -53 35.5 -78t85 -25t92.5 33t43 100v662h327v-1024h-297l-30 111h-4q-106 -131 -283 -131q-152 0 -224.5 87t-72.5 234zM168 1161v303h281v-303h-281zM623 1161v303h282v-303h-282z" />
<glyph unicode="&#xfd;" horiz-adv-x="1116" d="M20 1024h369l176 -653h4l172 653h355l-305 -918q-49 -150 -149.5 -305t-176.5 -231l-244 102l172 322zM451 1143l112 287h279l-168 -287h-223z" />
<glyph unicode="&#xfe;" horiz-adv-x="1095" d="M82 -410v1844h328v-521h4q51 70 106 100.5t137 30.5q188 0 282.5 -140t94.5 -392q0 -254 -113.5 -393t-349.5 -139q-70 0 -161 12v-402h-328zM410 246h122q86 0 122 65.5t36 200.5q0 141 -28.5 207.5t-116.5 66.5q-49 0 -92 -32.5t-43 -100.5v-407z" />
<glyph unicode="&#xff;" horiz-adv-x="1116" d="M20 1024h369l176 -653h4l172 653h355l-305 -918q-49 -150 -149.5 -305t-176.5 -231l-244 102l172 322zM188 1161v303h281v-303h-281zM643 1161v303h283v-303h-283z" />
<glyph unicode="&#x152;" horiz-adv-x="1878" d="M82 696.5q0 716.5 577 716.5q184 0 308 -117v97h833v-297h-565v-238h469v-297h-469v-264h565v-297h-833v94q-125 -115 -308 -114q-577 0 -577 716.5zM442 696q0 -88 7.5 -150.5t28 -129t66.5 -102t115 -35.5q72 0 118 35.5t66.5 102t28 129t7.5 150.5t-7.5 150.5t-28 129 t-66.5 102.5t-118 36q-70 0 -115.5 -36t-66 -102.5t-28 -129t-7.5 -150.5z" />
<glyph unicode="&#x153;" horiz-adv-x="1732" d="M61 512q0 532 496 532q221 0 338 -122q123 123 348 122q209 0 318.5 -98t109.5 -235q0 -297 -305 -297h-299q8 -84 42 -126t108 -42h378v-217q-186 -49 -378 -49q-213 0 -330 112q-117 -113 -330 -112q-496 0 -496 532zM406 512q0 -139 32.5 -203.5t118.5 -64.5 q88 0 121 64.5t33 203.5t-33 203.5t-121 64.5q-86 0 -118.5 -64.5t-32.5 -203.5zM1071 608h178q45 0 69.5 23.5t24.5 60.5q0 35 -28.5 60.5t-77.5 25.5q-139 0 -166 -170z" />
<glyph unicode="&#x178;" horiz-adv-x="1243" d="M31 1393h391l207 -531h4l209 531h370l-417 -918v-475h-346v475zM254 1509v303h281v-303h-281zM709 1509v303h282v-303h-282z" />
<glyph unicode="&#x2c6;" horiz-adv-x="905" d="M123 1147l205 287h250l204 -287h-237l-92 106l-93 -106h-237z" />
<glyph unicode="&#x2dc;" horiz-adv-x="952" d="M123 1313q88 104 225 104q51 0 138 -31.5t118 -31.5q98 0 176 59l49 -174q-92 -104 -225 -104q-47 0 -135 31.5t-121 31.5q-98 0 -176 -59z" />
<glyph unicode="&#x2000;" horiz-adv-x="905" />
<glyph unicode="&#x2001;" horiz-adv-x="1812" />
<glyph unicode="&#x2002;" horiz-adv-x="905" />
<glyph unicode="&#x2003;" horiz-adv-x="1812" />
<glyph unicode="&#x2004;" horiz-adv-x="604" />
<glyph unicode="&#x2005;" horiz-adv-x="452" />
<glyph unicode="&#x2006;" horiz-adv-x="301" />
<glyph unicode="&#x2007;" horiz-adv-x="301" />
<glyph unicode="&#x2008;" horiz-adv-x="225" />
<glyph unicode="&#x2009;" horiz-adv-x="362" />
<glyph unicode="&#x200a;" horiz-adv-x="100" />
<glyph unicode="&#x2010;" horiz-adv-x="983" d="M102 410v266h779v-266h-779z" />
<glyph unicode="&#x2011;" horiz-adv-x="983" d="M102 410v266h779v-266h-779z" />
<glyph unicode="&#x2012;" horiz-adv-x="983" d="M102 410v266h779v-266h-779z" />
<glyph unicode="&#x2013;" horiz-adv-x="1351" d="M102 410v266h1147v-266h-1147z" />
<glyph unicode="&#x2014;" horiz-adv-x="1761" d="M102 410v266h1557v-266h-1557z" />
<glyph unicode="&#x2018;" horiz-adv-x="460" d="M82 823v201q0 195 111 369h186v-570h-297z" />
<glyph unicode="&#x2019;" horiz-adv-x="460" d="M82 823v570h297v-201q0 -195 -111 -369h-186z" />
<glyph unicode="&#x201a;" horiz-adv-x="460" d="M82 -266v567h297v-199q0 -195 -111 -368h-186z" />
<glyph unicode="&#x201c;" horiz-adv-x="884" d="M82 823v201q0 195 111 369h186v-570h-297zM506 823v201q0 188 110 369h187v-570h-297z" />
<glyph unicode="&#x201d;" horiz-adv-x="884" d="M82 823v570h297v-201q0 -195 -111 -369h-186zM506 823v570h297v-201q0 -195 -111 -369h-186z" />
<glyph unicode="&#x201e;" horiz-adv-x="884" d="M82 -266v567h297v-199q0 -195 -111 -368h-186zM506 -266v567h297v-199q0 -195 -111 -368h-186z" />
<glyph unicode="&#x2022;" horiz-adv-x="464" d="M92 485v303h281v-303h-281z" />
<glyph unicode="&#x2026;" horiz-adv-x="1300" d="M82 0v301h297v-301h-297zM502 0v301h297v-301h-297zM922 0v301h297v-301h-297z" />
<glyph unicode="&#x202f;" horiz-adv-x="362" />
<glyph unicode="&#x2039;" horiz-adv-x="792" d="M102 442v201l588 342v-285l-266 -157l266 -160v-283z" />
<glyph unicode="&#x203a;" horiz-adv-x="792" d="M102 100v283l267 160l-267 157v285l588 -342v-201z" />
<glyph unicode="&#x205f;" horiz-adv-x="452" />
<glyph unicode="&#x20ac;" horiz-adv-x="1273" d="M82 471v127h115q-2 33 -2 98q0 61 2 92h-115v127h129q80 498 567 498q229 0 414 -49v-250h-352q-205 0 -262 -199h282v-127h-303q-2 -31 -2 -92q0 -66 4 -98h301v-127h-280q57 -193 260 -192h352v-250q-184 -49 -414 -49q-483 0 -567 491h-129z" />
<glyph unicode="&#x2122;" horiz-adv-x="1406" d="M72 1243v150h506v-150h-168v-547h-172v547h-166zM631 696l41 697h213l98 -402h2l92 402h215l43 -697h-164l-26 394h-2l-80 -394h-160l-82 394h-2l-24 -394h-164z" />
<glyph unicode="&#xe000;" horiz-adv-x="1025" d="M0 1025h1025v-1025h-1025v1025z" />
<glyph unicode="&#xfb01;" horiz-adv-x="1212" d="M20 776v197l138 51v117q0 145 78.5 229t248.5 84q100 0 232 -49v-217h-139q-92 0 -93 -78v-86h645v-1024h-327v776h-318v-776h-327v776h-138zM803 1147v287h327v-287h-327z" />
<glyph unicode="&#xfb02;" horiz-adv-x="1284" d="M20 776v197l138 51v117q0 145 78.5 229t248.5 84q100 0 232 -49v-217h-139q-92 0 -93 -78v-86h232v-248h-232v-776h-327v776h-138zM803 322v1112h327v-1112q0 -47 25 -61.5t109 -14.5v-256q-150 -8 -238 2t-139 51t-67.5 104.5t-16.5 174.5z" />
<glyph unicode="&#xfb03;" horiz-adv-x="1865" d="M29 776v197l137 51v117q0 313 328 313q100 0 231 -49v-217h-139q-92 0 -92 -78v-86h317v117q0 313 328 313q100 0 231 -49v-217h-139q-92 0 -92 -78v-86h645v-1024h-328v776h-317v-776h-328v776h-317v-776h-328v776h-137zM1456 1147v287h328v-287h-328z" />
<glyph unicode="&#xfb04;" horiz-adv-x="1937" d="M29 776v197l137 51v117q0 313 328 313q100 0 231 -49v-217h-139q-92 0 -92 -78v-86h317v117q0 313 328 313q100 0 231 -49v-217h-139q-92 0 -92 -78v-86h231v-248h-231v-776h-328v776h-317v-776h-328v776h-137zM1456 322v1112h328v-1112q0 -47 24.5 -61.5t108.5 -14.5 v-256q-150 -8 -238 2t-139 51t-67.5 104.5t-16.5 174.5z" />
<glyph horiz-adv-x="0" />
</font>
</defs>
</svg>
